<?xml version="1.0" encoding="utf-8"?>
<!-- Generator: Adobe Illustrator 21.1.0, SVG Export Plug-In . SVG Version: 6.00 Build 0)  -->
<svg version="1.1" id="Layer_1" xmlns="http://www.w3.org/2000/svg" xmlns:xlink="http://www.w3.org/1999/xlink" x="0px" y="0px"
	 viewBox="0 0 490.1 490.1" style="enable-background:new 0 0 490.1 490.1;" xml:space="preserve">
<style type="text/css">
	.st0{fill:#FFFFFF;}
</style>
<g>
	<g>
		<path class="st0" d="M216.3,293.2c1.9,1.9,4.4,2.9,7,2.9s5.1-1,7-2.9l82.2-82.2c3.9-3.9,3.9-10.1,0-14s-10.1-3.9-14,0l-75.2,75.2
			l-31.8-31.8c-3.9-3.9-10.1-3.9-14,0s-3.9,10.1,0,14L216.3,293.2z"/>
		<path class="st0" d="M14.8,450.3C7.3,454,3.1,462,4.4,470.2c1.3,8.3,7.6,14.7,15.9,16c6.1,1,12.7,1.4,19.4,1.4
			c18.2,0,52.9-3.7,86.9-27.9c36.1,19.9,76.9,30.4,118.4,30.4c65.5,0,127-25.5,173.3-71.8c95.6-95.6,95.6-251,0-346.6
			C372,25.5,310.5,0,245,0S118,25.5,71.7,71.8c-89.9,89.9-95.8,234-14.5,330.7C46,425.9,31.7,442,14.8,450.3z M85.7,85.8
			c42.5-42.5,99.1-66,159.3-66s116.7,23.4,159.3,66c87.8,87.8,87.8,230.7,0,318.6c-42.5,42.5-99.1,66-159.3,66
			c-40.2,0-79.6-10.7-114.1-31c-1.6-0.9-3.3-1.4-5-1.4c-2.2,0-4.3,0.7-6.1,2.1c-31.1,24.1-63.6,27.7-80.2,27.7
			c-4.8,0-9.5-0.3-14-0.9c21.6-11.3,39.1-32.2,52.2-62.1c1.5-3.5,0.9-7.6-1.7-10.5C-2.5,305.4,1.7,169.9,85.7,85.8z"/>
	</g>
</g>
</svg>
